# xmcd
#
# Track frame offsets:
#	150
#	15117
#	28894
#	43629
#	57953
#	69737
#	82959
#	95986
#	110220
#	124935
#	139382
#	152049
#	165731
#	177977
#	191463
#	205230
#	218577
#	233998
#	249329
#	263220
#
# Disc length: 3683 seconds
#
# Revision: 0
# Processed by: cddbd v1.5.1PL2 Copyright (c) Steve Scherf et al.
# Submitted via: dBpowerAMP V4.0
#
DISCID=210e6114
DTITLE=Cliff Carlisle - Far Beyond The Starry Sky
DYEAR=2002
DGENRE=Country
TTITLE0=Where My Memory Lies
TTITLE1=Girl In The Blue Velvet Band
TTITLE2=Far Beyond The Starry Sky
TTITLE3=Where Are The Pals Of Long Ago
TTITLE4=Blind Child's Prayer
TTITLE5=Georgia Moon
TTITLE6=Shine On Me
TTITLE7=Going Back To Alabama
TTITLE8=Where Romance Calls
TTITLE9=Desert Blues
TTITLE10=Dear Old Daddy
TTITLE11=Onion Eating Mama
TTITLE12=The Brakeman's Reply
TTITLE13=Prepare Me O Lord
TTITLE14=A Stretch Of 28 Years
TTITLE15=Lonely Orphan Child
TTITLE16=New Memories Of You That Haunt Me
TTITLE17=On The Banks Of The Rio Grande
TTITLE18=My Rocky Mountain Sweetheart
TTITLE19=Shine Your Light For Others
EXTD=
EXTT0=
EXTT1=
EXTT2=
EXTT3=
EXTT4=
EXTT5=
EXTT6=
EXTT7=
EXTT8=
EXTT9=
EXTT10=
EXTT11=
EXTT12=
EXTT13=
EXTT14=
EXTT15=
EXTT16=
EXTT17=
EXTT18=
EXTT19=
PLAYORDER=
